<?xml version="1.0" encoding="UTF-8"?>
<!DOCTYPE svg
PUBLIC "-//W3C//DTD SVG 1.1//EN"
       "http://www.w3.org/Graphics/SVG/1.1/DTD/svg11.dtd">
<svg viewBox="30 100 930 560" width="900px" height="460px" xmlns="http://www.w3.org/2000/svg" version="1.1">
   <line x1="649" y1="208" x2="659" y2="208" style="stroke:#0b0;stroke-width:1;"/>
   <line x1="771" y1="145" x2="781" y2="145" style="stroke:#0b0;stroke-width:1;"/>
   <line x1="659" y1="208" x2="771" y2="145" style="stroke:#0b0;stroke-width:1;"/>
   <line x1="656.5" y1="208" x2="652.96446609407" y2="211.53553390593" style="stroke:#0b0;stroke-width:2;"/>
   <line x1="656.5" y1="208" x2="652.96446609407" y2="204.46446609407" style="stroke:#0b0;stroke-width:2;"/>
   <line x1="776" y1="145" x2="772.46446609407" y2="148.53553390593" style="stroke:#0b0;stroke-width:2;"/>
   <line x1="776" y1="145" x2="772.46446609407" y2="141.46446609407" style="stroke:#0b0;stroke-width:2;"/>
   <line x1="495" y1="228" x2="485" y2="228" style="stroke:#0bf;stroke-width:1;"/>
   <line x1="402" y1="145" x2="392" y2="145" style="stroke:#0bf;stroke-width:1;"/>
   <line x1="485" y1="228" x2="402" y2="145" style="stroke:#0bf;stroke-width:1;"/>
   <line x1="487.5" y1="228" x2="491.03553390593" y2="231.53553390593" style="stroke:#0bf;stroke-width:2;"/>
   <line x1="487.5" y1="228" x2="491.03553390593" y2="224.46446609407" style="stroke:#0bf;stroke-width:2;"/>
   <line x1="397" y1="145" x2="400.53553390593" y2="148.53553390593" style="stroke:#0bf;stroke-width:2;"/>
   <line x1="397" y1="145" x2="400.53553390593" y2="141.46446609407" style="stroke:#0bf;stroke-width:2;"/>
   <line x1="262" y1="265" x2="252" y2="265" style="stroke:#333;stroke-width:1;"/>
   <line x1="185" y1="146" x2="175" y2="146" style="stroke:#333;stroke-width:1;"/>
   <line x1="252" y1="265" x2="185" y2="146" style="stroke:#333;stroke-width:1;"/>
   <line x1="254.5" y1="265" x2="258.03553390593" y2="268.53553390593" style="stroke:#333;stroke-width:2;"/>
   <line x1="254.5" y1="265" x2="258.03553390593" y2="261.46446609407" style="stroke:#333;stroke-width:2;"/>
   <line x1="180" y1="146" x2="183.53553390593" y2="149.53553390593" style="stroke:#333;stroke-width:2;"/>
   <line x1="180" y1="146" x2="183.53553390593" y2="142.46446609407" style="stroke:#333;stroke-width:2;"/>
   <line x1="309" y1="535" x2="319" y2="535" style="stroke:#c00;stroke-width:1;"/>
   <line x1="453" y1="487" x2="463" y2="487" style="stroke:#c00;stroke-width:1;"/>
   <line x1="319" y1="535" x2="453" y2="487" style="stroke:#c00;stroke-width:1;"/>
   <line x1="316.5" y1="535" x2="312.96446609407" y2="538.53553390593" style="stroke:#c00;stroke-width:2;"/>
   <line x1="316.5" y1="535" x2="312.96446609407" y2="531.46446609407" style="stroke:#c00;stroke-width:2;"/>
   <line x1="458" y1="487" x2="454.46446609407" y2="490.53553390593" style="stroke:#c00;stroke-width:2;"/>
   <line x1="458" y1="487" x2="454.46446609407" y2="483.46446609407" style="stroke:#c00;stroke-width:2;"/>
   <line x1="470" y1="393" x2="460" y2="393" style="stroke:#0bf;stroke-width:1;"/>
   <line x1="402" y1="145" x2="392" y2="145" style="stroke:#0bf;stroke-width:1;"/>
   <line x1="460" y1="393" x2="402" y2="145" style="stroke:#0bf;stroke-width:1;"/>
   <line x1="462.5" y1="393" x2="466.03553390593" y2="396.53553390593" style="stroke:#0bf;stroke-width:2;"/>
   <line x1="462.5" y1="393" x2="466.03553390593" y2="389.46446609407" style="stroke:#0bf;stroke-width:2;"/>
   <line x1="397" y1="145" x2="400.53553390593" y2="148.53553390593" style="stroke:#0bf;stroke-width:2;"/>
   <line x1="397" y1="145" x2="400.53553390593" y2="141.46446609407" style="stroke:#0bf;stroke-width:2;"/>
   <line x1="470" y1="413" x2="460" y2="413" style="stroke:#bbb;stroke-width:1;"/>
   <line x1="453" y1="487" x2="463" y2="487" style="stroke:#bbb;stroke-width:1;"/>
   <line x1="460" y1="413" x2="453" y2="487" style="stroke:#bbb;stroke-width:1;"/>
   <line x1="462.5" y1="413" x2="466.03553390593" y2="416.53553390593" style="stroke:#bbb;stroke-width:2;"/>
   <line x1="462.5" y1="413" x2="466.03553390593" y2="409.46446609407" style="stroke:#bbb;stroke-width:2;"/>
   <line x1="458" y1="487" x2="454.46446609407" y2="490.53553390593" style="stroke:#bbb;stroke-width:2;"/>
   <line x1="458" y1="487" x2="454.46446609407" y2="483.46446609407" style="stroke:#bbb;stroke-width:2;"/>
   <rect width="154" height="20" x="495" y="118" style="fill:#007;stroke:black;"/>
   <text width="154" height="20" x="500" y="132" style="fill:#fff;" font-family="Arial" font-size="16px"> dnevnik_aktivnosti</text>
   <rect width="154" height="20" x="495" y="138" style="fill:#aea;stroke:black;"/>
   <text width="154" height="20" x="500" y="152" style="fill:black;" font-family="Arial" font-size="16px">id_dnevnik_aktivnosti</text>
   <rect width="154" height="20" x="495" y="158" style="fill:none;stroke:black;"/>
   <text width="154" height="20" x="500" y="172" style="fill:black;" font-family="Arial" font-size="16px">datum</text>
   <rect width="154" height="20" x="495" y="178" style="fill:none;stroke:black;"/>
   <text width="154" height="20" x="500" y="192" style="fill:black;" font-family="Arial" font-size="16px">vrijeme</text>
   <rect width="154" height="20" x="495" y="198" style="fill:none;stroke:black;"/>
   <text width="154" height="20" x="500" y="212" style="fill:black;" font-family="Arial" font-size="16px">vrsta_aktivnosti_id</text>
   <rect width="154" height="20" x="495" y="218" style="fill:none;stroke:black;"/>
   <text width="154" height="20" x="500" y="232" style="fill:black;" font-family="Arial" font-size="16px">korisnik_id</text>
   <rect width="130" height="20" x="262" y="115" style="fill:#007;stroke:black;"/>
   <text width="130" height="20" x="267" y="129" style="fill:#fff;" font-family="Arial" font-size="16px"> korisnik</text>
   <rect width="130" height="20" x="262" y="135" style="fill:#aea;stroke:black;"/>
   <text width="130" height="20" x="267" y="149" style="fill:black;" font-family="Arial" font-size="16px">id_korisnik</text>
   <rect width="130" height="20" x="262" y="155" style="fill:none;stroke:black;"/>
   <text width="130" height="20" x="267" y="169" style="fill:black;" font-family="Arial" font-size="16px">ime</text>
   <rect width="130" height="20" x="262" y="175" style="fill:none;stroke:black;"/>
   <text width="130" height="20" x="267" y="189" style="fill:black;" font-family="Arial" font-size="16px">prezime</text>
   <rect width="130" height="20" x="262" y="195" style="fill:none;stroke:black;"/>
   <text width="130" height="20" x="267" y="209" style="fill:black;" font-family="Arial" font-size="16px">kor_ime</text>
   <rect width="130" height="20" x="262" y="215" style="fill:none;stroke:black;"/>
   <text width="130" height="20" x="267" y="229" style="fill:black;" font-family="Arial" font-size="16px">email</text>
   <rect width="130" height="20" x="262" y="235" style="fill:none;stroke:black;"/>
   <text width="130" height="20" x="267" y="249" style="fill:black;" font-family="Arial" font-size="16px">lozinka</text>
   <rect width="130" height="20" x="262" y="255" style="fill:none;stroke:black;"/>
   <text width="130" height="20" x="267" y="269" style="fill:black;" font-family="Arial" font-size="16px">vrsta_korisnika_id</text>
   <rect width="113" height="20" x="196" y="365" style="fill:#007;stroke:black;"/>
   <text width="113" height="20" x="201" y="379" style="fill:#fff;" font-family="Arial" font-size="16px"> ocitavanja</text>
   <rect width="113" height="20" x="196" y="385" style="fill:#aea;stroke:black;"/>
   <text width="113" height="20" x="201" y="399" style="fill:black;" font-family="Arial" font-size="16px">id_ocitavanja</text>
   <rect width="113" height="20" x="196" y="405" style="fill:none;stroke:black;"/>
   <text width="113" height="20" x="201" y="419" style="fill:black;" font-family="Arial" font-size="16px">datum</text>
   <rect width="113" height="20" x="196" y="425" style="fill:none;stroke:black;"/>
   <text width="113" height="20" x="201" y="439" style="fill:black;" font-family="Arial" font-size="16px">vrijeme</text>
   <rect width="113" height="20" x="196" y="445" style="fill:none;stroke:black;"/>
   <text width="113" height="20" x="201" y="459" style="fill:black;" font-family="Arial" font-size="16px">lpg</text>
   <rect width="113" height="20" x="196" y="465" style="fill:none;stroke:black;"/>
   <text width="113" height="20" x="201" y="479" style="fill:black;" font-family="Arial" font-size="16px">co</text>
   <rect width="113" height="20" x="196" y="485" style="fill:none;stroke:black;"/>
   <text width="113" height="20" x="201" y="499" style="fill:black;" font-family="Arial" font-size="16px">dim</text>
   <rect width="113" height="20" x="196" y="505" style="fill:none;stroke:black;"/>
   <text width="113" height="20" x="201" y="519" style="fill:black;" font-family="Arial" font-size="16px">kvaliteta_zraka</text>
   <rect width="113" height="20" x="196" y="525" style="fill:none;stroke:black;"/>
   <text width="113" height="20" x="201" y="539" style="fill:black;" font-family="Arial" font-size="16px">uredaj_id</text>
   <rect width="82" height="20" x="470" y="363" style="fill:#007;stroke:black;"/>
   <text width="82" height="20" x="475" y="377" style="fill:#fff;" font-family="Arial" font-size="16px"> posjeduje</text>
   <rect width="82" height="20" x="470" y="383" style="fill:none;stroke:black;"/>
   <text width="82" height="20" x="475" y="397" style="fill:black;" font-family="Arial" font-size="16px">korisnik_id</text>
   <rect width="82" height="20" x="470" y="403" style="fill:none;stroke:black;"/>
   <text width="82" height="20" x="475" y="417" style="fill:black;" font-family="Arial" font-size="16px">uredaj_id</text>
   <rect width="72" height="20" x="463" y="457" style="fill:#007;stroke:black;"/>
   <text width="72" height="20" x="468" y="471" style="fill:#fff;" font-family="Arial" font-size="16px"> uredaj</text>
   <rect width="72" height="20" x="463" y="477" style="fill:#aea;stroke:black;"/>
   <text width="72" height="20" x="468" y="491" style="fill:black;" font-family="Arial" font-size="16px">id_uredaj</text>
   <rect width="72" height="20" x="463" y="497" style="fill:none;stroke:black;"/>
   <text width="72" height="20" x="468" y="511" style="fill:black;" font-family="Arial" font-size="16px">lokacija</text>
   <rect width="72" height="20" x="463" y="517" style="fill:none;stroke:black;"/>
   <text width="72" height="20" x="468" y="531" style="fill:black;" font-family="Arial" font-size="16px">naziv</text>
   <rect width="134" height="20" x="781" y="115" style="fill:#007;stroke:black;"/>
   <text width="134" height="20" x="786" y="129" style="fill:#fff;" font-family="Arial" font-size="16px"> vrsta_aktivnosti</text>
   <rect width="134" height="20" x="781" y="135" style="fill:#aea;stroke:black;"/>
   <text width="134" height="20" x="786" y="149" style="fill:black;" font-family="Arial" font-size="16px">id_vrsta_aktivnosti</text>
   <rect width="134" height="20" x="781" y="155" style="fill:none;stroke:black;"/>
   <text width="134" height="20" x="786" y="169" style="fill:black;" font-family="Arial" font-size="16px">naziv</text>
   <rect width="134" height="20" x="781" y="175" style="fill:none;stroke:black;"/>
   <text width="134" height="20" x="786" y="189" style="fill:black;" font-family="Arial" font-size="16px">opis</text>
   <rect width="130" height="20" x="45" y="116" style="fill:#007;stroke:black;"/>
   <text width="130" height="20" x="50" y="130" style="fill:#fff;" font-family="Arial" font-size="16px"> vrsta_korisnika</text>
   <rect width="130" height="20" x="45" y="136" style="fill:#aea;stroke:black;"/>
   <text width="130" height="20" x="50" y="150" style="fill:black;" font-family="Arial" font-size="16px">id_vrsta_korisnika</text>
   <rect width="130" height="20" x="45" y="156" style="fill:none;stroke:black;"/>
   <text width="130" height="20" x="50" y="170" style="fill:black;" font-family="Arial" font-size="16px">naziv</text>
   <rect width="130" height="20" x="45" y="176" style="fill:none;stroke:black;"/>
   <text width="130" height="20" x="50" y="190" style="fill:black;" font-family="Arial" font-size="16px">opis</text>
</svg>
